<?xml version="1.0" encoding="utf-8"?>
<!-- Generator: Adobe Illustrator 14.0.0, SVG Export Plug-In . SVG Version: 6.00 Build 43363)  -->
<!DOCTYPE svg PUBLIC "-//W3C//DTD SVG 1.1//EN" "http://www.w3.org/Graphics/SVG/1.1/DTD/svg11.dtd">
<svg version="1.1" id="Layer_1" xmlns="http://www.w3.org/2000/svg" xmlns:xlink="http://www.w3.org/1999/xlink" x="0px" y="0px"
	 width="20px" height="20px" viewBox="0 0 20 20" enable-background="new 0 0 20 20" xml:space="preserve">
<g>
	<path fill="#FFFFFF" d="M19.461,6.689l-9.171,9.169l-1.724,1.725c-0.227,0.228-0.544,0.354-0.86,0.354s-0.633-0.127-0.859-0.354
		l-1.725-1.725l-4.584-4.584c-0.228-0.228-0.354-0.544-0.354-0.861s0.127-0.634,0.354-0.862l1.723-1.723
		c0.228-0.228,0.544-0.354,0.861-0.354c0.316,0,0.633,0.126,0.861,0.354l3.723,3.737l8.31-8.322
		c0.229-0.227,0.544-0.354,0.859-0.354c0.318,0,0.634,0.127,0.864,0.354l1.722,1.723c0.227,0.229,0.355,0.545,0.355,0.862
		C19.816,6.146,19.688,6.461,19.461,6.689z"/>
</g>
</svg>
