<?xml version="1.0" encoding="utf-8"?>
<!-- Generator: Adobe Illustrator 14.0.0, SVG Export Plug-In . SVG Version: 6.00 Build 43363)  -->
<!DOCTYPE svg PUBLIC "-//W3C//DTD SVG 1.1//EN" "http://www.w3.org/Graphics/SVG/1.1/DTD/svg11.dtd">
<svg version="1.1" id="Layer_1" xmlns="http://www.w3.org/2000/svg" xmlns:xlink="http://www.w3.org/1999/xlink" x="0px" y="0px"
	 width="20px" height="20px" viewBox="0 0 20 20" enable-background="new 0 0 20 20" xml:space="preserve">
<g>
	<path fill="#FFFFFF" d="M19.257,16.978l-2.224,2.224c-0.293,0.295-0.702,0.458-1.111,0.458c-0.408,0-0.817-0.163-1.111-0.458
		l-4.807-4.806l-4.807,4.806c-0.294,0.295-0.703,0.458-1.112,0.458c-0.409,0-0.817-0.163-1.112-0.458L0.75,16.978
		c-0.295-0.293-0.458-0.702-0.458-1.111s0.163-0.817,0.458-1.111l4.806-4.807L0.75,5.142C0.455,4.848,0.292,4.439,0.292,4.03
		c0-0.409,0.163-0.817,0.458-1.112l2.223-2.223C3.268,0.4,3.676,0.237,4.085,0.237c0.409,0,0.818,0.163,1.112,0.458l4.807,4.807
		l4.807-4.807c0.294-0.294,0.703-0.458,1.111-0.458c0.409,0,0.818,0.163,1.111,0.458l2.224,2.223
		c0.295,0.295,0.459,0.703,0.459,1.112c0,0.409-0.164,0.818-0.459,1.112l-4.806,4.807l4.806,4.807
		c0.295,0.294,0.459,0.702,0.459,1.111S19.552,16.685,19.257,16.978z"/>
</g>
</svg>
